<mxfile host="65bd71144e">
    <diagram id="hihi2yRtY_jnP79b_YhU" name="Page-1">
        <mxGraphModel dx="3763" dy="428" grid="1" gridSize="10" guides="1" tooltips="1" connect="1" arrows="1" fold="1" page="1" pageScale="1" pageWidth="827" pageHeight="1169" math="0" shadow="0">
            <root>
                <mxCell id="0"/>
                <mxCell id="1" parent="0"/>
                <mxCell id="343" value="" style="rounded=1;whiteSpace=wrap;html=1;glass=0;fontSize=66;fontColor=#FFFFFF;strokeColor=#000000;fillColor=#262626;" parent="1" vertex="1">
                    <mxGeometry x="-2190" y="1400" width="510" height="770" as="geometry"/>
                </mxCell>
                <mxCell id="344" value="folders" style="text;html=1;strokeColor=none;fillColor=none;align=center;verticalAlign=middle;whiteSpace=wrap;rounded=0;glass=0;fontSize=66;fontColor=#FFFFFF;" parent="1" vertex="1">
                    <mxGeometry x="-2000" y="1440" width="140" height="30" as="geometry"/>
                </mxCell>
                <mxCell id="339" value="" style="rounded=1;whiteSpace=wrap;html=1;glass=0;fontSize=66;fontColor=#FFFFFF;strokeColor=#000000;fillColor=#262626;" parent="1" vertex="1">
                    <mxGeometry x="-750" y="1370" width="510" height="770" as="geometry"/>
                </mxCell>
                <mxCell id="2" value="" style="rounded=1;whiteSpace=wrap;html=1;fillColor=#262626;" parent="1" vertex="1">
                    <mxGeometry x="10" y="10" width="470" height="320" as="geometry"/>
                </mxCell>
                <mxCell id="6" value="stocks" style="whiteSpace=wrap;html=1;aspect=fixed;fillColor=#a0522d;fontColor=#ffffff;strokeColor=#6D1F00;rounded=1;" parent="1" vertex="1">
                    <mxGeometry x="355" y="100" width="80" height="80" as="geometry"/>
                </mxCell>
                <mxCell id="7" value="customers" style="whiteSpace=wrap;html=1;aspect=fixed;fillColor=#a0522d;fontColor=#ffffff;strokeColor=#6D1F00;rounded=1;" parent="1" vertex="1">
                    <mxGeometry x="195" y="100" width="80" height="80" as="geometry"/>
                </mxCell>
                <mxCell id="8" value="" style="rounded=1;whiteSpace=wrap;html=1;fillColor=#262626;" parent="1" vertex="1">
                    <mxGeometry x="-30" y="520" width="390" height="220" as="geometry"/>
                </mxCell>
                <mxCell id="186" style="edgeStyle=none;curved=1;html=1;exitX=0;exitY=1;exitDx=0;exitDy=0;entryX=1;entryY=0;entryDx=0;entryDy=0;fontSize=10;fontColor=#00BA00;strokeColor=#FFFFFF;rounded=1;sourcePerimeterSpacing=1;" parent="1" source="9" target="21" edge="1">
                    <mxGeometry relative="1" as="geometry">
                        <Array as="points">
                            <mxPoint x="-20" y="720"/>
                            <mxPoint x="200" y="750"/>
                        </Array>
                    </mxGeometry>
                </mxCell>
                <mxCell id="9" value="1" style="whiteSpace=wrap;html=1;aspect=fixed;rounded=1;fillColor=none;strokeColor=#FFFFFF;fontColor=#FFFFFF;" parent="1" vertex="1">
                    <mxGeometry x="-10" y="540" width="50" height="50" as="geometry"/>
                </mxCell>
                <mxCell id="10" value="2" style="whiteSpace=wrap;html=1;aspect=fixed;rounded=1;fillColor=none;strokeColor=#FFFFFF;fontColor=#FFFFFF;" parent="1" vertex="1">
                    <mxGeometry x="50" y="540" width="50" height="50" as="geometry"/>
                </mxCell>
                <mxCell id="11" value="3" style="whiteSpace=wrap;html=1;aspect=fixed;rounded=1;fillColor=none;strokeColor=#FFFFFF;fontColor=#FFFFFF;" parent="1" vertex="1">
                    <mxGeometry x="110" y="540" width="50" height="50" as="geometry"/>
                </mxCell>
                <mxCell id="12" value="4" style="whiteSpace=wrap;html=1;aspect=fixed;rounded=1;fillColor=none;strokeColor=#FFFFFF;fontColor=#FFFFFF;" parent="1" vertex="1">
                    <mxGeometry x="170" y="540" width="50" height="50" as="geometry"/>
                </mxCell>
                <mxCell id="13" value="5" style="whiteSpace=wrap;html=1;aspect=fixed;rounded=1;fillColor=none;strokeColor=#FFFFFF;fontColor=#FFFFFF;" parent="1" vertex="1">
                    <mxGeometry x="230" y="540" width="50" height="50" as="geometry"/>
                </mxCell>
                <mxCell id="14" value="6" style="whiteSpace=wrap;html=1;aspect=fixed;rounded=1;fillColor=none;strokeColor=#FFFFFF;fontColor=#FFFFFF;" parent="1" vertex="1">
                    <mxGeometry x="290" y="540" width="50" height="50" as="geometry"/>
                </mxCell>
                <mxCell id="15" value="" style="curved=1;endArrow=classic;html=1;exitX=0.02;exitY=0.04;exitDx=0;exitDy=0;entryX=0;entryY=1;entryDx=0;entryDy=0;rounded=1;exitPerimeter=0;strokeColor=#FFFFFF;" parent="1" source="8" target="7" edge="1">
                    <mxGeometry width="50" height="50" relative="1" as="geometry">
                        <mxPoint x="480" y="460" as="sourcePoint"/>
                        <mxPoint x="190" y="190" as="targetPoint"/>
                        <Array as="points">
                            <mxPoint x="120" y="430"/>
                            <mxPoint x="170" y="350"/>
                            <mxPoint x="160" y="190"/>
                        </Array>
                    </mxGeometry>
                </mxCell>
                <mxCell id="17" value="supliers" style="whiteSpace=wrap;html=1;aspect=fixed;fillColor=#a0522d;fontColor=#ffffff;strokeColor=#6D1F00;rounded=1;" parent="1" vertex="1">
                    <mxGeometry x="35" y="100" width="80" height="80" as="geometry"/>
                </mxCell>
                <mxCell id="131" style="edgeStyle=none;curved=1;html=1;exitX=0.026;exitY=0.032;exitDx=0;exitDy=0;entryX=1;entryY=1;entryDx=0;entryDy=0;fontSize=7;strokeColor=#FFFFFF;rounded=1;exitPerimeter=0;" parent="1" source="18" target="6" edge="1">
                    <mxGeometry relative="1" as="geometry">
                        <Array as="points">
                            <mxPoint x="600" y="300"/>
                        </Array>
                    </mxGeometry>
                </mxCell>
                <mxCell id="18" value="" style="rounded=1;whiteSpace=wrap;html=1;fillColor=#262626;strokeColor=#FFFFFF;fontColor=#FFFFFF;" parent="1" vertex="1">
                    <mxGeometry x="716" y="270" width="464" height="220" as="geometry"/>
                </mxCell>
                <mxCell id="21" value="" style="rounded=1;whiteSpace=wrap;html=1;fillColor=#262626;strokeColor=#FFFFFF;fontColor=#FFFFFF;" parent="1" vertex="1">
                    <mxGeometry x="-30" y="810" width="206" height="290" as="geometry"/>
                </mxCell>
                <mxCell id="25" value="woman" style="whiteSpace=wrap;html=1;aspect=fixed;rounded=1;strokeColor=#FFFFFF;fontColor=#FFFFFF;fillColor=none;" parent="1" vertex="1">
                    <mxGeometry x="736" y="430" width="50" height="50" as="geometry"/>
                </mxCell>
                <mxCell id="26" value="man" style="whiteSpace=wrap;html=1;aspect=fixed;rounded=1;strokeColor=#FFFFFF;fontColor=#FFFFFF;fillColor=none;" parent="1" vertex="1">
                    <mxGeometry x="736" y="355" width="50" height="50" as="geometry"/>
                </mxCell>
                <mxCell id="27" value="child" style="whiteSpace=wrap;html=1;aspect=fixed;rounded=1;strokeColor=#FFFFFF;fontColor=#FFFFFF;fillColor=none;" parent="1" vertex="1">
                    <mxGeometry x="736" y="280" width="50" height="50" as="geometry"/>
                </mxCell>
                <mxCell id="28" value="stock quantity of choosed selection" style="rounded=1;whiteSpace=wrap;html=1;strokeColor=#FFFFFF;fontColor=#FFFFFF;fillColor=none;" parent="1" vertex="1">
                    <mxGeometry x="816" y="285" width="340" height="185" as="geometry"/>
                </mxCell>
                <mxCell id="31" value="&lt;span&gt;shows&lt;br&gt;what 6 boughted&amp;nbsp;&lt;/span&gt;&lt;br&gt;&lt;span&gt;and&lt;/span&gt;&lt;br&gt;&lt;span&gt;how much money spent.&lt;/span&gt;" style="rounded=1;whiteSpace=wrap;html=1;strokeColor=#FFFFFF;fillColor=none;fontColor=#FFFFFF;" parent="1" vertex="1">
                    <mxGeometry y="930" width="150" height="90" as="geometry"/>
                </mxCell>
                <mxCell id="32" value="ManageMarketAppV0.1" style="rounded=1;whiteSpace=wrap;html=1;fillColor=#a0522d;fontColor=#ffffff;strokeColor=#6D1F00;" parent="1" vertex="1">
                    <mxGeometry x="30" y="20" width="420" height="60" as="geometry"/>
                </mxCell>
                <mxCell id="33" value="expenses&lt;br&gt;and&lt;br&gt;sales" style="whiteSpace=wrap;html=1;aspect=fixed;fillColor=#a0522d;fontColor=#ffffff;strokeColor=#6D1F00;rounded=1;" parent="1" vertex="1">
                    <mxGeometry x="35" y="210" width="80" height="80" as="geometry"/>
                </mxCell>
                <mxCell id="322" style="edgeStyle=none;curved=1;rounded=1;html=1;exitX=0.5;exitY=1;exitDx=0;exitDy=0;fontSize=10;fontColor=#000000;strokeColor=#FF3333;" parent="1" source="35" target="205" edge="1">
                    <mxGeometry relative="1" as="geometry"/>
                </mxCell>
                <mxCell id="35" value="" style="rounded=1;whiteSpace=wrap;html=1;fillColor=#ffe6cc;strokeColor=#d79b00;" parent="1" vertex="1">
                    <mxGeometry x="1520" y="10" width="470" height="320" as="geometry"/>
                </mxCell>
                <mxCell id="36" value="Welcome&lt;br&gt;Mustafa's Market" style="rounded=1;whiteSpace=wrap;html=1;fillColor=none;fontColor=#000000;strokeColor=#000000;" parent="1" vertex="1">
                    <mxGeometry x="1540" y="20" width="420" height="60" as="geometry"/>
                </mxCell>
                <mxCell id="40" value="" style="rounded=1;whiteSpace=wrap;html=1;fillColor=#262626;fontColor=#FFFFFF;strokeColor=#FFFFFF;" parent="1" vertex="1">
                    <mxGeometry x="-1350" y="535" width="470" height="245" as="geometry"/>
                </mxCell>
                <mxCell id="62" style="edgeStyle=none;curved=1;html=1;exitX=1;exitY=0;exitDx=0;exitDy=0;fontSize=21;strokeColor=#FFFFFF;rounded=1;fontColor=#FFFFFF;" parent="1" source="41" target="63" edge="1">
                    <mxGeometry relative="1" as="geometry">
                        <mxPoint x="-830" y="490.25" as="targetPoint"/>
                        <Array as="points">
                            <mxPoint x="-950" y="410"/>
                        </Array>
                    </mxGeometry>
                </mxCell>
                <mxCell id="41" value="catagory $supliarName" style="rounded=1;whiteSpace=wrap;html=1;fontSize=22;align=left;fillColor=#262626;strokeColor=#FFFFFF;fontColor=#FFFFFF;" parent="1" vertex="1">
                    <mxGeometry x="-1325" y="555" width="245" height="30" as="geometry"/>
                </mxCell>
                <mxCell id="44" value="" style="rounded=1;whiteSpace=wrap;html=1;fontSize=22;fillColor=none;fontColor=#FFFFFF;strokeColor=#FFFFFF;" parent="1" vertex="1">
                    <mxGeometry x="-1325" y="595" width="415" height="170" as="geometry"/>
                </mxCell>
                <mxCell id="47" value="&lt;span style=&quot;font-size: 11px&quot;&gt;man&lt;/span&gt;" style="rounded=1;whiteSpace=wrap;html=1;fontSize=22;strokeColor=#FFFFFF;fillColor=none;verticalAlign=top;fontColor=#FFFFFF;" parent="1" vertex="1">
                    <mxGeometry x="-1310" y="658" width="70" height="40" as="geometry"/>
                </mxCell>
                <mxCell id="61" style="edgeStyle=none;curved=1;html=1;entryX=0;entryY=1;entryDx=0;entryDy=0;fontSize=21;strokeColor=#FFFFFF;rounded=1;exitX=1;exitY=0.5;exitDx=0;exitDy=0;" parent="1" source="51" target="17" edge="1">
                    <mxGeometry relative="1" as="geometry">
                        <mxPoint x="-740" y="110" as="sourcePoint"/>
                        <Array as="points">
                            <mxPoint x="-160" y="510"/>
                        </Array>
                    </mxGeometry>
                </mxCell>
                <mxCell id="51" value="" style="rounded=1;whiteSpace=wrap;html=1;fillColor=#262626;fontColor=#FFFFFF;strokeColor=#FFFFFF;" parent="1" vertex="1">
                    <mxGeometry x="-1342.5" y="170" width="470" height="240" as="geometry"/>
                </mxCell>
                <mxCell id="52" value="supliars" style="rounded=1;whiteSpace=wrap;html=1;fontSize=22;align=left;fillColor=#262626;strokeColor=#FFFFFF;fontColor=#FFFFFF;" parent="1" vertex="1">
                    <mxGeometry x="-1312.5" y="199" width="95" height="30" as="geometry"/>
                </mxCell>
                <mxCell id="53" value="" style="rounded=1;whiteSpace=wrap;html=1;fontSize=22;fillColor=none;fontColor=#FFFFFF;strokeColor=#FFFFFF;" parent="1" vertex="1">
                    <mxGeometry x="-1312.5" y="239" width="415" height="140" as="geometry"/>
                </mxCell>
                <mxCell id="54" value="&lt;font style=&quot;font-size: 13px&quot;&gt;&lt;i&gt;LCW&lt;/i&gt;&lt;/font&gt;" style="rounded=1;whiteSpace=wrap;html=1;fontSize=22;strokeColor=#FFFFFF;fillColor=none;verticalAlign=top;fontColor=#FFFFFF;" parent="1" vertex="1">
                    <mxGeometry x="-1285" y="284" width="80" height="50" as="geometry"/>
                </mxCell>
                <mxCell id="55" value="&lt;i style=&quot;font-size: 13px&quot;&gt;HOOMAN&lt;/i&gt;" style="rounded=1;whiteSpace=wrap;html=1;fontSize=22;strokeColor=#FFFFFF;fillColor=none;verticalAlign=top;fontColor=#FFFFFF;" parent="1" vertex="1">
                    <mxGeometry x="-1155" y="284" width="80" height="50" as="geometry"/>
                </mxCell>
                <mxCell id="57" value="&lt;i style=&quot;font-size: 13px&quot;&gt;ERTAN&lt;/i&gt;" style="rounded=1;whiteSpace=wrap;html=1;fontSize=22;strokeColor=#FFFFFF;fillColor=none;verticalAlign=top;fontColor=#FFFFFF;" parent="1" vertex="1">
                    <mxGeometry x="-1030" y="284" width="80" height="50" as="geometry"/>
                </mxCell>
                <mxCell id="60" style="edgeStyle=none;curved=1;html=1;exitX=0.012;exitY=0.05;exitDx=0;exitDy=0;entryX=1;entryY=1;entryDx=0;entryDy=0;fontSize=21;strokeColor=#FFFFFF;rounded=1;exitPerimeter=0;fontColor=#FFFFFF;" parent="1" source="40" target="54" edge="1">
                    <mxGeometry relative="1" as="geometry">
                        <Array as="points">
                            <mxPoint x="-1300" y="420"/>
                            <mxPoint x="-1205" y="450"/>
                            <mxPoint x="-1220" y="390"/>
                        </Array>
                    </mxGeometry>
                </mxCell>
                <mxCell id="63" value="&lt;h1&gt;&lt;font style=&quot;font-size: 18px&quot;&gt;$supliarName is a property of wears.&lt;/font&gt;&lt;/h1&gt;" style="text;html=1;strokeColor=none;fillColor=none;spacing=5;spacingTop=-20;whiteSpace=wrap;overflow=hidden;rounded=1;fontSize=21;fontColor=#FFFFFF;" parent="1" vertex="1">
                    <mxGeometry x="-872" y="520" width="170" height="120" as="geometry"/>
                </mxCell>
                <mxCell id="66" value="&lt;p&gt;&lt;span style=&quot;font-size: 12px ; line-height: 0.8&quot;&gt;**&lt;/span&gt;&lt;/p&gt;" style="text;html=1;strokeColor=none;fillColor=none;spacing=5;spacingTop=-20;whiteSpace=wrap;overflow=hidden;rounded=1;fontSize=21;fontColor=#FFFFFF;" parent="1" vertex="1">
                    <mxGeometry x="-870" y="625" width="170" height="60" as="geometry"/>
                </mxCell>
                <mxCell id="67" value="shows 6's informations.&lt;br&gt;like name." style="rounded=1;whiteSpace=wrap;html=1;fillColor=none;strokeColor=#FFFFFF;fontColor=#FFFFFF;" parent="1" vertex="1">
                    <mxGeometry y="830" width="150" height="90" as="geometry"/>
                </mxCell>
                <mxCell id="76" value="value" style="rounded=1;whiteSpace=wrap;html=1;fontSize=12;strokeColor=#FFFFFF;fillColor=none;fontColor=#FFFFFF;" parent="1" vertex="1">
                    <mxGeometry x="-1180" y="693" width="70" height="12" as="geometry"/>
                </mxCell>
                <mxCell id="84" style="edgeStyle=none;curved=1;html=1;exitX=1;exitY=1;exitDx=0;exitDy=0;fontSize=12;strokeColor=#FFFFFF;rounded=1;fontColor=#FFFFFF;" parent="1" source="78" target="80" edge="1">
                    <mxGeometry relative="1" as="geometry">
                        <mxPoint x="-880" y="850" as="targetPoint"/>
                        <Array as="points">
                            <mxPoint x="-1010" y="880"/>
                            <mxPoint x="-940" y="840"/>
                            <mxPoint x="-910" y="850"/>
                        </Array>
                    </mxGeometry>
                </mxCell>
                <mxCell id="80" value="&lt;p&gt;&lt;span style=&quot;font-size: 12px ; line-height: 0.8&quot;&gt;* shoes, sweater, pants&lt;/span&gt;&lt;/p&gt;&lt;p&gt;&lt;font style=&quot;font-size: 12px&quot;&gt;* numericField&lt;/font&gt;&lt;/p&gt;&lt;p&gt;&lt;font style=&quot;font-size: 12px&quot;&gt;* order button&lt;/font&gt;&lt;/p&gt;" style="text;html=1;strokeColor=none;fillColor=none;spacing=5;spacingTop=-20;whiteSpace=wrap;overflow=hidden;rounded=1;fontSize=21;fontColor=#FFFFFF;" parent="1" vertex="1">
                    <mxGeometry x="-870" y="693" width="170" height="135" as="geometry"/>
                </mxCell>
                <mxCell id="85" value="market" style="whiteSpace=wrap;html=1;aspect=fixed;fillColor=#a0522d;fontColor=#ffffff;strokeColor=#6D1F00;rounded=1;" parent="1" vertex="1">
                    <mxGeometry x="195" y="210" width="80" height="80" as="geometry"/>
                </mxCell>
                <mxCell id="129" style="edgeStyle=none;curved=1;html=1;entryX=0;entryY=1;entryDx=0;entryDy=0;fontSize=7;strokeColor=#FFFFFF;rounded=1;" parent="1" source="87" target="33" edge="1">
                    <mxGeometry relative="1" as="geometry">
                        <Array as="points">
                            <mxPoint x="-40" y="480"/>
                        </Array>
                    </mxGeometry>
                </mxCell>
                <mxCell id="87" value="" style="rounded=1;whiteSpace=wrap;html=1;fillColor=#262626;" parent="1" vertex="1">
                    <mxGeometry x="-630" y="490" width="490" height="490" as="geometry"/>
                </mxCell>
                <mxCell id="94" value=" expenses" style="shape=table;startSize=30;container=1;collapsible=0;childLayout=tableLayout;fontStyle=1;align=left;pointerEvents=1;glass=0;fontSize=12;strokeColor=#FFFFFF;fillColor=none;rounded=1;fontColor=#FFFFFF;" parent="1" vertex="1">
                    <mxGeometry x="-610" y="530" width="450" height="200" as="geometry"/>
                </mxCell>
                <mxCell id="95" value="" style="shape=partialRectangle;html=1;whiteSpace=wrap;collapsible=0;dropTarget=0;pointerEvents=0;fillColor=none;top=0;left=0;bottom=0;right=0;points=[[0,0.5],[1,0.5]];portConstraint=eastwest;glass=0;fontSize=12;strokeColor=#FFFFFF;rounded=1;" parent="94" vertex="1">
                    <mxGeometry y="30" width="450" height="22" as="geometry"/>
                </mxCell>
                <mxCell id="96" value="&amp;nbsp;eleman" style="shape=partialRectangle;html=1;whiteSpace=wrap;connectable=0;fillColor=none;top=0;left=0;bottom=0;right=0;overflow=hidden;pointerEvents=1;glass=0;fontSize=12;strokeColor=default;align=left;rounded=1;" parent="95" vertex="1">
                    <mxGeometry width="386" height="22" as="geometry">
                        <mxRectangle width="386" height="22" as="alternateBounds"/>
                    </mxGeometry>
                </mxCell>
                <mxCell id="111" value="const" style="shape=partialRectangle;html=1;whiteSpace=wrap;connectable=0;fillColor=none;top=0;left=0;bottom=0;right=0;overflow=hidden;pointerEvents=1;glass=0;fontSize=12;strokeColor=default;rounded=1;" parent="95" vertex="1">
                    <mxGeometry x="386" width="64" height="22" as="geometry">
                        <mxRectangle width="64" height="22" as="alternateBounds"/>
                    </mxGeometry>
                </mxCell>
                <mxCell id="117" style="shape=partialRectangle;html=1;whiteSpace=wrap;collapsible=0;dropTarget=0;pointerEvents=0;fillColor=none;top=0;left=0;bottom=0;right=0;points=[[0,0.5],[1,0.5]];portConstraint=eastwest;glass=0;fontSize=12;strokeColor=#FFFFFF;align=left;rounded=1;" parent="94" vertex="1">
                    <mxGeometry y="52" width="450" height="20" as="geometry"/>
                </mxCell>
                <mxCell id="118" value="&amp;nbsp;faturalar" style="shape=partialRectangle;html=1;whiteSpace=wrap;connectable=0;fillColor=none;top=0;left=0;bottom=0;right=0;overflow=hidden;pointerEvents=1;glass=0;fontSize=12;strokeColor=default;align=left;rounded=1;" parent="117" vertex="1">
                    <mxGeometry width="386" height="20" as="geometry">
                        <mxRectangle width="386" height="20" as="alternateBounds"/>
                    </mxGeometry>
                </mxCell>
                <mxCell id="119" value="const" style="shape=partialRectangle;html=1;whiteSpace=wrap;connectable=0;fillColor=none;top=0;left=0;bottom=0;right=0;overflow=hidden;pointerEvents=1;glass=0;fontSize=12;strokeColor=default;rounded=1;" parent="117" vertex="1">
                    <mxGeometry x="386" width="64" height="20" as="geometry">
                        <mxRectangle width="64" height="20" as="alternateBounds"/>
                    </mxGeometry>
                </mxCell>
                <mxCell id="114" style="shape=partialRectangle;html=1;whiteSpace=wrap;collapsible=0;dropTarget=0;pointerEvents=0;fillColor=none;top=0;left=0;bottom=0;right=0;points=[[0,0.5],[1,0.5]];portConstraint=eastwest;glass=0;fontSize=12;strokeColor=#FFFFFF;rounded=1;" parent="94" vertex="1">
                    <mxGeometry y="72" width="450" height="21" as="geometry"/>
                </mxCell>
                <mxCell id="115" value="&amp;nbsp;lcw" style="shape=partialRectangle;html=1;whiteSpace=wrap;connectable=0;fillColor=none;top=0;left=0;bottom=0;right=0;overflow=hidden;pointerEvents=1;glass=0;fontSize=12;strokeColor=default;align=left;rounded=1;" parent="114" vertex="1">
                    <mxGeometry width="386" height="21" as="geometry">
                        <mxRectangle width="386" height="21" as="alternateBounds"/>
                    </mxGeometry>
                </mxCell>
                <mxCell id="116" value="&lt;font style=&quot;font-size: 9px&quot;&gt;orderExpense&lt;/font&gt;" style="shape=partialRectangle;html=1;whiteSpace=wrap;connectable=0;fillColor=none;top=0;left=0;bottom=0;right=0;overflow=hidden;pointerEvents=1;glass=0;fontSize=12;strokeColor=default;rounded=1;" parent="114" vertex="1">
                    <mxGeometry x="386" width="64" height="21" as="geometry">
                        <mxRectangle width="64" height="21" as="alternateBounds"/>
                    </mxGeometry>
                </mxCell>
                <mxCell id="99" value="" style="shape=partialRectangle;html=1;whiteSpace=wrap;collapsible=0;dropTarget=0;pointerEvents=0;fillColor=none;top=0;left=0;bottom=0;right=0;points=[[0,0.5],[1,0.5]];portConstraint=eastwest;glass=0;fontSize=12;strokeColor=#FFFFFF;rounded=1;" parent="94" vertex="1">
                    <mxGeometry y="93" width="450" height="22" as="geometry"/>
                </mxCell>
                <mxCell id="100" value="&amp;nbsp;ertan" style="shape=partialRectangle;html=1;whiteSpace=wrap;connectable=0;fillColor=none;top=0;left=0;bottom=0;right=0;overflow=hidden;pointerEvents=1;glass=0;fontSize=12;strokeColor=#FFFFFF;align=left;rounded=1;" parent="99" vertex="1">
                    <mxGeometry width="386" height="22" as="geometry">
                        <mxRectangle width="386" height="22" as="alternateBounds"/>
                    </mxGeometry>
                </mxCell>
                <mxCell id="112" value="&lt;span style=&quot;font-size: 9px&quot;&gt;orderExpense&lt;/span&gt;" style="shape=partialRectangle;html=1;whiteSpace=wrap;connectable=0;fillColor=none;top=0;left=0;bottom=0;right=0;overflow=hidden;pointerEvents=1;glass=0;fontSize=12;strokeColor=#FFFFFF;rounded=1;" parent="99" vertex="1">
                    <mxGeometry x="386" width="64" height="22" as="geometry">
                        <mxRectangle width="64" height="22" as="alternateBounds"/>
                    </mxGeometry>
                </mxCell>
                <mxCell id="103" value="" style="shape=partialRectangle;html=1;whiteSpace=wrap;collapsible=0;dropTarget=0;pointerEvents=0;fillColor=none;top=0;left=0;bottom=0;right=0;points=[[0,0.5],[1,0.5]];portConstraint=eastwest;glass=0;fontSize=12;strokeColor=#FFFFFF;rounded=1;" parent="94" vertex="1">
                    <mxGeometry y="115" width="450" height="22" as="geometry"/>
                </mxCell>
                <mxCell id="104" value="&amp;nbsp;hooman" style="shape=partialRectangle;html=1;whiteSpace=wrap;connectable=0;fillColor=none;top=0;left=0;bottom=0;right=0;overflow=hidden;pointerEvents=1;glass=0;fontSize=12;strokeColor=#FFFFFF;align=left;rounded=1;" parent="103" vertex="1">
                    <mxGeometry width="386" height="22" as="geometry">
                        <mxRectangle width="386" height="22" as="alternateBounds"/>
                    </mxGeometry>
                </mxCell>
                <mxCell id="113" value="&lt;span style=&quot;font-size: 9px&quot;&gt;orderExpense&lt;/span&gt;" style="shape=partialRectangle;html=1;whiteSpace=wrap;connectable=0;fillColor=none;top=0;left=0;bottom=0;right=0;overflow=hidden;pointerEvents=1;glass=0;fontSize=12;strokeColor=#FFFFFF;rounded=1;" parent="103" vertex="1">
                    <mxGeometry x="386" width="64" height="22" as="geometry">
                        <mxRectangle width="64" height="22" as="alternateBounds"/>
                    </mxGeometry>
                </mxCell>
                <mxCell id="120" style="shape=partialRectangle;html=1;whiteSpace=wrap;collapsible=0;dropTarget=0;pointerEvents=0;fillColor=none;top=0;left=0;bottom=0;right=0;points=[[0,0.5],[1,0.5]];portConstraint=eastwest;glass=0;fontSize=12;strokeColor=#FFFFFF;rounded=1;" parent="94" vertex="1">
                    <mxGeometry y="137" width="450" height="21" as="geometry"/>
                </mxCell>
                <mxCell id="121" value="&amp;nbsp;kargo" style="shape=partialRectangle;html=1;whiteSpace=wrap;connectable=0;fillColor=none;top=0;left=0;bottom=0;right=0;overflow=hidden;pointerEvents=1;glass=0;fontSize=12;strokeColor=#FFFFFF;align=left;rounded=1;" parent="120" vertex="1">
                    <mxGeometry width="386" height="21" as="geometry">
                        <mxRectangle width="386" height="21" as="alternateBounds"/>
                    </mxGeometry>
                </mxCell>
                <mxCell id="122" value="&lt;font style=&quot;font-size: 7px&quot;&gt;const*orderNumber&lt;/font&gt;" style="shape=partialRectangle;html=1;whiteSpace=wrap;connectable=0;fillColor=none;top=0;left=0;bottom=0;right=0;overflow=hidden;pointerEvents=1;glass=0;fontSize=12;strokeColor=#FFFFFF;rounded=1;" parent="120" vertex="1">
                    <mxGeometry x="386" width="64" height="21" as="geometry">
                        <mxRectangle width="64" height="21" as="alternateBounds"/>
                    </mxGeometry>
                </mxCell>
                <mxCell id="123" style="shape=partialRectangle;html=1;whiteSpace=wrap;collapsible=0;dropTarget=0;pointerEvents=0;fillColor=none;top=0;left=0;bottom=0;right=0;points=[[0,0.5],[1,0.5]];portConstraint=eastwest;glass=0;fontSize=12;strokeColor=#FFFFFF;rounded=1;" parent="94" vertex="1">
                    <mxGeometry y="158" width="450" height="20" as="geometry"/>
                </mxCell>
                <mxCell id="124" value="&amp;nbsp;vergiler" style="shape=partialRectangle;html=1;whiteSpace=wrap;connectable=0;fillColor=none;top=0;left=0;bottom=0;right=0;overflow=hidden;pointerEvents=1;glass=0;fontSize=12;strokeColor=#FFFFFF;align=left;rounded=1;" parent="123" vertex="1">
                    <mxGeometry width="386" height="20" as="geometry">
                        <mxRectangle width="386" height="20" as="alternateBounds"/>
                    </mxGeometry>
                </mxCell>
                <mxCell id="125" value="&lt;span style=&quot;font-size: 7px&quot;&gt;const*orderNumber&lt;/span&gt;" style="shape=partialRectangle;html=1;whiteSpace=wrap;connectable=0;fillColor=none;top=0;left=0;bottom=0;right=0;overflow=hidden;pointerEvents=1;glass=0;fontSize=12;strokeColor=#FFFFFF;rounded=1;" parent="123" vertex="1">
                    <mxGeometry x="386" width="64" height="20" as="geometry">
                        <mxRectangle width="64" height="20" as="alternateBounds"/>
                    </mxGeometry>
                </mxCell>
                <mxCell id="126" style="shape=partialRectangle;html=1;whiteSpace=wrap;collapsible=0;dropTarget=0;pointerEvents=0;fillColor=none;top=0;left=0;bottom=0;right=0;points=[[0,0.5],[1,0.5]];portConstraint=eastwest;glass=0;fontSize=12;strokeColor=#FFFFFF;rounded=1;" parent="94" vertex="1">
                    <mxGeometry y="178" width="450" height="22" as="geometry"/>
                </mxCell>
                <mxCell id="127" value="&amp;nbsp;total" style="shape=partialRectangle;html=1;whiteSpace=wrap;connectable=0;fillColor=none;top=0;left=0;bottom=0;right=0;overflow=hidden;pointerEvents=1;glass=0;fontSize=12;strokeColor=#FFFFFF;align=left;rounded=1;" parent="126" vertex="1">
                    <mxGeometry width="386" height="22" as="geometry">
                        <mxRectangle width="386" height="22" as="alternateBounds"/>
                    </mxGeometry>
                </mxCell>
                <mxCell id="128" value="sum of up" style="shape=partialRectangle;html=1;whiteSpace=wrap;connectable=0;fillColor=none;top=0;left=0;bottom=0;right=0;overflow=hidden;pointerEvents=1;glass=0;fontSize=12;strokeColor=#FFFFFF;rounded=1;" parent="126" vertex="1">
                    <mxGeometry x="386" width="64" height="22" as="geometry">
                        <mxRectangle width="64" height="22" as="alternateBounds"/>
                    </mxGeometry>
                </mxCell>
                <mxCell id="132" value="orders" style="whiteSpace=wrap;html=1;aspect=fixed;fillColor=#a0522d;fontColor=#ffffff;strokeColor=#6D1F00;rounded=1;" parent="1" vertex="1">
                    <mxGeometry x="355" y="210" width="80" height="80" as="geometry"/>
                </mxCell>
                <mxCell id="133" value="sales" style="shape=table;startSize=30;container=1;collapsible=0;childLayout=tableLayout;fontStyle=1;align=left;pointerEvents=1;glass=0;fontSize=12;strokeColor=#FFFFFF;fillColor=none;rounded=1;fontColor=#FFFFFF;" parent="1" vertex="1">
                    <mxGeometry x="-610" y="760" width="450" height="90" as="geometry"/>
                </mxCell>
                <mxCell id="134" value="" style="shape=partialRectangle;html=1;whiteSpace=wrap;collapsible=0;dropTarget=0;pointerEvents=0;fillColor=none;top=0;left=0;bottom=0;right=0;points=[[0,0.5],[1,0.5]];portConstraint=eastwest;glass=0;fontSize=12;strokeColor=#FFFFFF;rounded=1;" parent="133" vertex="1">
                    <mxGeometry y="30" width="450" height="30" as="geometry"/>
                </mxCell>
                <mxCell id="135" value="&amp;nbsp;shows saled all items" style="shape=partialRectangle;html=1;whiteSpace=wrap;connectable=0;fillColor=none;top=0;left=0;bottom=0;right=0;overflow=hidden;pointerEvents=1;glass=0;fontSize=12;strokeColor=default;align=left;rounded=1;fontColor=#FFFFFF;" parent="134" vertex="1">
                    <mxGeometry width="386" height="30" as="geometry">
                        <mxRectangle width="386" height="30" as="alternateBounds"/>
                    </mxGeometry>
                </mxCell>
                <mxCell id="136" value="$" style="shape=partialRectangle;html=1;whiteSpace=wrap;connectable=0;fillColor=none;top=0;left=0;bottom=0;right=0;overflow=hidden;pointerEvents=1;glass=0;fontSize=12;strokeColor=default;rounded=1;" parent="134" vertex="1">
                    <mxGeometry x="386" width="64" height="30" as="geometry">
                        <mxRectangle width="64" height="30" as="alternateBounds"/>
                    </mxGeometry>
                </mxCell>
                <mxCell id="158" style="shape=partialRectangle;html=1;whiteSpace=wrap;collapsible=0;dropTarget=0;pointerEvents=0;fillColor=none;top=0;left=0;bottom=0;right=0;points=[[0,0.5],[1,0.5]];portConstraint=eastwest;glass=0;fontSize=12;strokeColor=#FFFFFF;rounded=1;" parent="133" vertex="1">
                    <mxGeometry y="60" width="450" height="30" as="geometry"/>
                </mxCell>
                <mxCell id="159" value="&amp;nbsp;total" style="shape=partialRectangle;html=1;whiteSpace=wrap;connectable=0;fillColor=none;top=0;left=0;bottom=0;right=0;overflow=hidden;pointerEvents=1;glass=0;fontSize=12;strokeColor=default;align=left;rounded=1;fontColor=#FFFFFF;" parent="158" vertex="1">
                    <mxGeometry width="386" height="30" as="geometry">
                        <mxRectangle width="386" height="30" as="alternateBounds"/>
                    </mxGeometry>
                </mxCell>
                <mxCell id="160" value="sum of up" style="shape=partialRectangle;html=1;whiteSpace=wrap;connectable=0;fillColor=none;top=0;left=0;bottom=0;right=0;overflow=hidden;pointerEvents=1;glass=0;fontSize=12;strokeColor=default;rounded=1;" parent="158" vertex="1">
                    <mxGeometry x="386" width="64" height="30" as="geometry">
                        <mxRectangle width="64" height="30" as="alternateBounds"/>
                    </mxGeometry>
                </mxCell>
                <mxCell id="162" value="endorsement" style="shape=table;startSize=30;container=1;collapsible=0;childLayout=tableLayout;fontStyle=1;align=left;pointerEvents=1;glass=0;fontSize=12;strokeColor=#FFFFFF;fillColor=none;rounded=1;fontColor=#FFFFFF;" parent="1" vertex="1">
                    <mxGeometry x="-610" y="880" width="450" height="60" as="geometry"/>
                </mxCell>
                <mxCell id="163" value="" style="shape=partialRectangle;html=1;whiteSpace=wrap;collapsible=0;dropTarget=0;pointerEvents=0;fillColor=none;top=0;left=0;bottom=0;right=0;points=[[0,0.5],[1,0.5]];portConstraint=eastwest;glass=0;fontSize=12;strokeColor=#FFFFFF;rounded=1;" parent="162" vertex="1">
                    <mxGeometry y="30" width="450" height="30" as="geometry"/>
                </mxCell>
                <mxCell id="164" value="&amp;nbsp;giro" style="shape=partialRectangle;html=1;whiteSpace=wrap;connectable=0;fillColor=none;top=0;left=0;bottom=0;right=0;overflow=hidden;pointerEvents=1;glass=0;fontSize=12;strokeColor=default;align=left;rounded=1;" parent="163" vertex="1">
                    <mxGeometry width="386" height="30" as="geometry">
                        <mxRectangle width="386" height="30" as="alternateBounds"/>
                    </mxGeometry>
                </mxCell>
                <mxCell id="165" value="&lt;font style=&quot;font-size: 8px;&quot;&gt;&lt;font style=&quot;font-size: 8px;&quot;&gt;sum of sales and expenses&lt;/font&gt;&lt;br style=&quot;font-size: 8px;&quot;&gt;&lt;/font&gt;" style="shape=partialRectangle;html=1;whiteSpace=wrap;connectable=0;fillColor=none;top=0;left=0;bottom=0;right=0;overflow=hidden;pointerEvents=1;glass=0;fontSize=8;strokeColor=default;verticalAlign=top;fontColor=#00BA00;rounded=1;" parent="163" vertex="1">
                    <mxGeometry x="386" width="64" height="30" as="geometry">
                        <mxRectangle width="64" height="30" as="alternateBounds"/>
                    </mxGeometry>
                </mxCell>
                <mxCell id="185" style="edgeStyle=none;curved=1;html=1;exitX=0.005;exitY=0.071;exitDx=0;exitDy=0;entryX=1;entryY=1;entryDx=0;entryDy=0;fontSize=10;fontColor=#00BA00;strokeColor=#FFFFFF;rounded=1;exitPerimeter=0;" parent="1" source="169" target="85" edge="1">
                    <mxGeometry relative="1" as="geometry">
                        <Array as="points">
                            <mxPoint x="450" y="500"/>
                        </Array>
                    </mxGeometry>
                </mxCell>
                <mxCell id="169" value="" style="rounded=1;whiteSpace=wrap;html=1;fillColor=#262626;fontColor=#FFFFFF;strokeColor=#FFFFFF;" parent="1" vertex="1">
                    <mxGeometry x="370" y="810" width="470" height="220" as="geometry"/>
                </mxCell>
                <mxCell id="170" value="woman" style="whiteSpace=wrap;html=1;aspect=fixed;rounded=1;fillColor=none;strokeColor=#FFFFFF;fontColor=#FFFFFF;" parent="1" vertex="1">
                    <mxGeometry x="390" y="970" width="50" height="50" as="geometry"/>
                </mxCell>
                <mxCell id="171" value="man" style="whiteSpace=wrap;html=1;aspect=fixed;rounded=1;fillColor=none;strokeColor=#FFFFFF;fontColor=#FFFFFF;" parent="1" vertex="1">
                    <mxGeometry x="390" y="895" width="50" height="50" as="geometry"/>
                </mxCell>
                <mxCell id="172" value="child" style="whiteSpace=wrap;html=1;aspect=fixed;rounded=1;fillColor=none;strokeColor=#FFFFFF;fontColor=#FFFFFF;" parent="1" vertex="1">
                    <mxGeometry x="390" y="820" width="50" height="50" as="geometry"/>
                </mxCell>
                <mxCell id="173" value="" style="rounded=1;whiteSpace=wrap;html=1;fillColor=#262626;fontColor=#FFFFFF;strokeColor=#FFFFFF;" parent="1" vertex="1">
                    <mxGeometry x="470" y="820" width="270" height="200" as="geometry"/>
                </mxCell>
                <mxCell id="174" value="" style="rounded=1;whiteSpace=wrap;html=1;glass=0;fontSize=8;fontColor=#FFFFFF;strokeColor=#FFFFFF;fillColor=none;" parent="1" vertex="1">
                    <mxGeometry x="490" y="835" width="60" height="60" as="geometry"/>
                </mxCell>
                <mxCell id="175" value="" style="rounded=1;whiteSpace=wrap;html=1;glass=0;fontSize=8;fontColor=#FFFFFF;strokeColor=#FFFFFF;fillColor=none;" parent="1" vertex="1">
                    <mxGeometry x="570" y="835" width="60" height="60" as="geometry"/>
                </mxCell>
                <mxCell id="176" value="" style="rounded=1;whiteSpace=wrap;html=1;glass=0;fontSize=8;fontColor=#FFFFFF;strokeColor=#FFFFFF;fillColor=none;" parent="1" vertex="1">
                    <mxGeometry x="656" y="835" width="60" height="60" as="geometry"/>
                </mxCell>
                <mxCell id="177" value="" style="rounded=1;whiteSpace=wrap;html=1;glass=0;fontSize=8;fontColor=#FFFFFF;strokeColor=#FFFFFF;fillColor=none;" parent="1" vertex="1">
                    <mxGeometry x="490" y="920" width="60" height="60" as="geometry"/>
                </mxCell>
                <mxCell id="178" value="" style="rounded=1;whiteSpace=wrap;html=1;glass=0;fontSize=8;fontColor=#FFFFFF;strokeColor=#FFFFFF;fillColor=none;" parent="1" vertex="1">
                    <mxGeometry x="570" y="920" width="60" height="60" as="geometry"/>
                </mxCell>
                <mxCell id="179" value="" style="rounded=1;whiteSpace=wrap;html=1;glass=0;fontSize=8;fontColor=#FFFFFF;strokeColor=#FFFFFF;fillColor=none;" parent="1" vertex="1">
                    <mxGeometry x="656" y="917.5" width="60" height="60" as="geometry"/>
                </mxCell>
                <mxCell id="181" value="" style="shape=cross;whiteSpace=wrap;html=1;glass=0;fontSize=8;fontColor=#FFFFFF;strokeColor=#FFFFFF;fillColor=#7D7D7D;rounded=1;" parent="1" vertex="1">
                    <mxGeometry x="666.5" y="925" width="39" height="40" as="geometry"/>
                </mxCell>
                <mxCell id="183" value="*click on&amp;nbsp; &amp;nbsp; &amp;nbsp;products to&amp;nbsp; &amp;nbsp;delete.&lt;br&gt;&lt;br&gt;*click on '+'&lt;br&gt;&amp;nbsp; button to add&lt;br&gt;&amp;nbsp; new product&lt;br&gt;&amp;nbsp; to market." style="rounded=1;whiteSpace=wrap;html=1;align=left;verticalAlign=top;fillColor=none;strokeColor=#FFFFFF;fontColor=#FFFFFF;" parent="1" vertex="1">
                    <mxGeometry x="750" y="820" width="80" height="160" as="geometry"/>
                </mxCell>
                <mxCell id="184" value="&lt;font style=&quot;font-size: 10px&quot;&gt;product number&lt;/font&gt;" style="rounded=1;whiteSpace=wrap;html=1;fillColor=none;strokeColor=#FFFFFF;fontColor=#FFFFFF;" parent="1" vertex="1">
                    <mxGeometry x="750" y="990" width="80" height="30" as="geometry"/>
                </mxCell>
                <mxCell id="195" style="edgeStyle=none;curved=1;html=1;entryX=1;entryY=1;entryDx=0;entryDy=0;fontSize=10;fontColor=#FFFFFF;strokeColor=#FFFFFF;rounded=1;exitX=0.014;exitY=0.048;exitDx=0;exitDy=0;exitPerimeter=0;" parent="1" source="187" target="132" edge="1">
                    <mxGeometry relative="1" as="geometry">
                        <Array as="points">
                            <mxPoint x="530" y="460"/>
                        </Array>
                    </mxGeometry>
                </mxCell>
                <mxCell id="187" value="" style="rounded=1;whiteSpace=wrap;html=1;fillColor=#262626;fontColor=#FFFFFF;strokeColor=#FFFFFF;" parent="1" vertex="1">
                    <mxGeometry x="716" y="535" width="464" height="220" as="geometry"/>
                </mxCell>
                <mxCell id="188" value="orders" style="swimlane;fontStyle=0;childLayout=stackLayout;horizontal=1;startSize=26;fillColor=none;horizontalStack=0;resizeParent=1;resizeParentMax=0;resizeLast=0;collapsible=1;marginBottom=0;glass=0;fontSize=10;fontColor=#FFFFFF;strokeColor=#FFFFFF;rounded=1;" parent="1" vertex="1">
                    <mxGeometry x="730" y="550" width="440" height="182" as="geometry"/>
                </mxCell>
                <mxCell id="189" value="Item 1" style="text;strokeColor=#FFFFFF;fillColor=none;align=left;verticalAlign=top;spacingLeft=4;spacingRight=4;overflow=hidden;rotatable=0;points=[[0,0.5],[1,0.5]];portConstraint=eastwest;glass=0;fontSize=10;fontColor=#FFFFFF;rounded=1;" parent="188" vertex="1">
                    <mxGeometry y="26" width="440" height="26" as="geometry"/>
                </mxCell>
                <mxCell id="190" value="Item 2" style="text;strokeColor=#FFFFFF;fillColor=none;align=left;verticalAlign=top;spacingLeft=4;spacingRight=4;overflow=hidden;rotatable=0;points=[[0,0.5],[1,0.5]];portConstraint=eastwest;glass=0;fontSize=10;fontColor=#FFFFFF;rounded=1;" parent="188" vertex="1">
                    <mxGeometry y="52" width="440" height="26" as="geometry"/>
                </mxCell>
                <mxCell id="191" value="Item 3" style="text;strokeColor=#FFFFFF;fillColor=none;align=left;verticalAlign=top;spacingLeft=4;spacingRight=4;overflow=hidden;rotatable=0;points=[[0,0.5],[1,0.5]];portConstraint=eastwest;glass=0;fontSize=10;fontColor=#FFFFFF;rounded=1;" parent="188" vertex="1">
                    <mxGeometry y="78" width="440" height="26" as="geometry"/>
                </mxCell>
                <mxCell id="192" value="item" style="text;strokeColor=#FFFFFF;fillColor=none;align=left;verticalAlign=top;spacingLeft=4;spacingRight=4;overflow=hidden;rotatable=0;points=[[0,0.5],[1,0.5]];portConstraint=eastwest;glass=0;fontSize=10;fontColor=#FFFFFF;rounded=1;" parent="188" vertex="1">
                    <mxGeometry y="104" width="440" height="26" as="geometry"/>
                </mxCell>
                <mxCell id="193" value="item" style="text;strokeColor=#FFFFFF;fillColor=none;align=left;verticalAlign=top;spacingLeft=4;spacingRight=4;overflow=hidden;rotatable=0;points=[[0,0.5],[1,0.5]];portConstraint=eastwest;glass=0;fontSize=10;fontColor=#FFFFFF;rounded=1;" parent="188" vertex="1">
                    <mxGeometry y="130" width="440" height="26" as="geometry"/>
                </mxCell>
                <mxCell id="194" value="item" style="text;strokeColor=#FFFFFF;fillColor=none;align=left;verticalAlign=top;spacingLeft=4;spacingRight=4;overflow=hidden;rotatable=0;points=[[0,0.5],[1,0.5]];portConstraint=eastwest;glass=0;fontSize=10;fontColor=#FFFFFF;rounded=1;" parent="188" vertex="1">
                    <mxGeometry y="156" width="440" height="26" as="geometry"/>
                </mxCell>
                <mxCell id="198" value="customer name" style="rounded=1;whiteSpace=wrap;html=1;glass=0;fontSize=10;fontColor=#000000;strokeColor=#000000;fillColor=none;" parent="1" vertex="1">
                    <mxGeometry x="1687.5" y="145" width="135" height="20" as="geometry"/>
                </mxCell>
                <mxCell id="199" value="customer password" style="rounded=1;whiteSpace=wrap;html=1;glass=0;fontSize=10;fontColor=#000000;strokeColor=#000000;fillColor=none;" parent="1" vertex="1">
                    <mxGeometry x="1687.5" y="179" width="135" height="20" as="geometry"/>
                </mxCell>
                <mxCell id="200" value="LogIn" style="rounded=1;whiteSpace=wrap;html=1;glass=0;fontSize=10;fontColor=#000000;strokeColor=#000000;fillColor=none;" parent="1" vertex="1">
                    <mxGeometry x="1690" y="210" width="60" height="30" as="geometry"/>
                </mxCell>
                <mxCell id="201" value="SignIn" style="rounded=1;whiteSpace=wrap;html=1;glass=0;fontSize=10;fontColor=#000000;strokeColor=#000000;fillColor=none;" parent="1" vertex="1">
                    <mxGeometry x="1760" y="210" width="60" height="30" as="geometry"/>
                </mxCell>
                <mxCell id="204" value="jigglypuff" style="rhombus;whiteSpace=wrap;html=1;glass=0;fontSize=10;fontColor=#000000;strokeColor=#000000;fillColor=none;rounded=1;" parent="1" vertex="1">
                    <mxGeometry x="1727.5" y="90" width="55" height="50" as="geometry"/>
                </mxCell>
                <mxCell id="205" value="" style="rounded=1;whiteSpace=wrap;html=1;fillColor=#ffe6cc;strokeColor=#d79b00;" parent="1" vertex="1">
                    <mxGeometry x="1520" y="365" width="470" height="320" as="geometry"/>
                </mxCell>
                <mxCell id="206" value="&amp;nbsp;Market" style="rounded=1;whiteSpace=wrap;html=1;fillColor=none;fontColor=#000000;strokeColor=#000000;align=left;fontSize=15;" parent="1" vertex="1">
                    <mxGeometry x="1650" y="390" width="320" height="35" as="geometry"/>
                </mxCell>
                <mxCell id="207" value="$customerName" style="rounded=1;whiteSpace=wrap;html=1;fillColor=none;fontColor=#000000;strokeColor=#000000;" parent="1" vertex="1">
                    <mxGeometry x="1540" y="390" width="100" height="35" as="geometry"/>
                </mxCell>
                <mxCell id="209" value="" style="rounded=1;whiteSpace=wrap;html=1;fillColor=none;fontColor=#000000;strokeColor=#000000;" parent="1" vertex="1">
                    <mxGeometry x="1540" y="445" width="100" height="225" as="geometry"/>
                </mxCell>
                <mxCell id="210" value="" style="rounded=1;whiteSpace=wrap;html=1;fillColor=none;fontColor=#000000;strokeColor=#000000;" parent="1" vertex="1">
                    <mxGeometry x="1650" y="445" width="320" height="225" as="geometry"/>
                </mxCell>
                <mxCell id="211" value="order" style="rounded=1;whiteSpace=wrap;html=1;fillColor=none;fontColor=#000000;strokeColor=#000000;" parent="1" vertex="1">
                    <mxGeometry x="1560" y="625" width="60" height="35" as="geometry"/>
                </mxCell>
                <mxCell id="244" value="&lt;ul&gt;&lt;li&gt;Value 1&lt;/li&gt;&lt;li&gt;Value 2&lt;/li&gt;&lt;li&gt;Value 3&lt;/li&gt;&lt;li&gt;Value 4&lt;/li&gt;&lt;/ul&gt;" style="text;strokeColor=none;fillColor=none;html=1;whiteSpace=wrap;verticalAlign=middle;overflow=hidden;glass=0;fontSize=12;fontColor=#000000;align=left;horizontal=1;labelPosition=center;verticalLabelPosition=middle;container=0;rounded=1;" parent="1" vertex="1">
                    <mxGeometry x="1520" y="459" width="120" height="91" as="geometry"/>
                </mxCell>
                <mxCell id="245" value="x$" style="text;html=1;strokeColor=none;fillColor=none;align=right;verticalAlign=middle;whiteSpace=wrap;rounded=1;glass=0;fontSize=12;fontColor=#000000;" parent="1" vertex="1">
                    <mxGeometry x="1560" y="590" width="60" height="30" as="geometry"/>
                </mxCell>
                <mxCell id="246" value="" style="rounded=1;whiteSpace=wrap;html=1;glass=0;fontSize=12;fontColor=#000000;strokeColor=#000000;fillColor=none;" parent="1" vertex="1">
                    <mxGeometry x="1670" y="472" width="70" height="50" as="geometry"/>
                </mxCell>
                <mxCell id="247" value="" style="rounded=1;whiteSpace=wrap;html=1;glass=0;fontSize=12;fontColor=#000000;strokeColor=#000000;fillColor=none;" parent="1" vertex="1">
                    <mxGeometry x="1775" y="472" width="70" height="50" as="geometry"/>
                </mxCell>
                <mxCell id="248" value="" style="rounded=1;whiteSpace=wrap;html=1;glass=0;fontSize=12;fontColor=#000000;strokeColor=#000000;fillColor=none;" parent="1" vertex="1">
                    <mxGeometry x="1880" y="472" width="70" height="50" as="geometry"/>
                </mxCell>
                <mxCell id="249" value="" style="rounded=1;whiteSpace=wrap;html=1;glass=0;fontSize=12;fontColor=#000000;strokeColor=#000000;fillColor=none;" parent="1" vertex="1">
                    <mxGeometry x="1775" y="543" width="70" height="50" as="geometry"/>
                </mxCell>
                <mxCell id="250" value="" style="rounded=1;whiteSpace=wrap;html=1;glass=0;fontSize=12;fontColor=#000000;strokeColor=#000000;fillColor=none;" parent="1" vertex="1">
                    <mxGeometry x="1670" y="543" width="70" height="50" as="geometry"/>
                </mxCell>
                <mxCell id="251" value="" style="rounded=1;whiteSpace=wrap;html=1;glass=0;fontSize=12;fontColor=#000000;strokeColor=#000000;fillColor=none;" parent="1" vertex="1">
                    <mxGeometry x="1880" y="543" width="70" height="50" as="geometry"/>
                </mxCell>
                <mxCell id="252" value="" style="rounded=1;whiteSpace=wrap;html=1;glass=0;fontSize=12;fontColor=#000000;strokeColor=#000000;fillColor=none;" parent="1" vertex="1">
                    <mxGeometry x="1775" y="608" width="70" height="50" as="geometry"/>
                </mxCell>
                <mxCell id="253" value="" style="rounded=1;whiteSpace=wrap;html=1;glass=0;fontSize=12;fontColor=#000000;strokeColor=#000000;fillColor=none;" parent="1" vertex="1">
                    <mxGeometry x="1670" y="608" width="70" height="50" as="geometry"/>
                </mxCell>
                <mxCell id="254" value="" style="rounded=1;whiteSpace=wrap;html=1;glass=0;fontSize=12;fontColor=#000000;strokeColor=#000000;fillColor=none;" parent="1" vertex="1">
                    <mxGeometry x="1880" y="608" width="70" height="50" as="geometry"/>
                </mxCell>
                <mxCell id="258" value="orders" style="rounded=1;whiteSpace=wrap;html=1;fillColor=none;fontColor=#000000;strokeColor=#000000;align=center;fontSize=10;" parent="1" vertex="1">
                    <mxGeometry x="1920" y="397.5" width="40" height="20" as="geometry"/>
                </mxCell>
                <mxCell id="259" value="account" style="rounded=1;whiteSpace=wrap;html=1;fillColor=none;fontColor=#000000;strokeColor=#000000;align=center;fontSize=10;" parent="1" vertex="1">
                    <mxGeometry x="1870" y="397.5" width="40" height="20" as="geometry"/>
                </mxCell>
                <mxCell id="262" value="delete" style="rounded=1;whiteSpace=wrap;html=1;fontColor=#FFFFFF;strokeColor=#FFFFFF;" parent="1" vertex="1">
                    <mxGeometry x="38" y="1030" width="70" height="40" as="geometry"/>
                </mxCell>
                <mxCell id="263" value="" style="rounded=1;whiteSpace=wrap;html=1;fillColor=#ffe6cc;strokeColor=#d79b00;" parent="1" vertex="1">
                    <mxGeometry x="2200" y="375" width="470" height="320" as="geometry"/>
                </mxCell>
                <mxCell id="264" value="&amp;nbsp;Market" style="rounded=1;whiteSpace=wrap;html=1;fillColor=none;fontColor=#000000;strokeColor=#000000;align=left;fontSize=15;" parent="1" vertex="1">
                    <mxGeometry x="2330" y="400" width="320" height="35" as="geometry"/>
                </mxCell>
                <mxCell id="265" value="$customerName" style="rounded=1;whiteSpace=wrap;html=1;fillColor=none;fontColor=#000000;strokeColor=#000000;" parent="1" vertex="1">
                    <mxGeometry x="2220" y="400" width="100" height="35" as="geometry"/>
                </mxCell>
                <mxCell id="266" value="account" style="rounded=1;whiteSpace=wrap;html=1;fillColor=none;fontColor=#000000;strokeColor=#000000;align=center;fontSize=10;" parent="1" vertex="1">
                    <mxGeometry x="2550" y="407.5" width="40" height="20" as="geometry"/>
                </mxCell>
                <mxCell id="311" style="edgeStyle=none;curved=1;rounded=1;html=1;entryX=1;entryY=1;entryDx=0;entryDy=0;fontSize=10;fontColor=#000000;strokeColor=#FF3333;exitX=0.019;exitY=0.055;exitDx=0;exitDy=0;exitPerimeter=0;" parent="1" source="263" target="258" edge="1">
                    <mxGeometry relative="1" as="geometry">
                        <mxPoint x="2780" y="500" as="sourcePoint"/>
                        <Array as="points">
                            <mxPoint x="2100" y="480"/>
                        </Array>
                    </mxGeometry>
                </mxCell>
                <mxCell id="267" value="market" style="rounded=1;whiteSpace=wrap;html=1;fillColor=none;fontColor=#000000;strokeColor=#000000;align=center;fontSize=10;" parent="1" vertex="1">
                    <mxGeometry x="2600" y="407.5" width="40" height="20" as="geometry"/>
                </mxCell>
                <mxCell id="269" value="balance: 1000$" style="text;html=1;strokeColor=none;fillColor=none;align=center;verticalAlign=middle;whiteSpace=wrap;rounded=1;glass=0;fontSize=10;fontColor=#000000;" parent="1" vertex="1">
                    <mxGeometry x="1765" y="440" width="90" height="30" as="geometry"/>
                </mxCell>
                <mxCell id="274" value="balance: 1000$" style="text;html=1;strokeColor=none;fillColor=none;align=center;verticalAlign=middle;whiteSpace=wrap;rounded=1;glass=0;fontSize=10;fontColor=#000000;" parent="1" vertex="1">
                    <mxGeometry x="2395" y="450.5" width="90" height="30" as="geometry"/>
                </mxCell>
                <mxCell id="275" value="" style="shape=table;html=1;whiteSpace=wrap;startSize=0;container=1;collapsible=0;childLayout=tableLayout;columnLines=0;rowLines=0;glass=0;fontSize=10;fontColor=#000000;strokeColor=#000000;fillColor=none;rounded=1;" parent="1" vertex="1">
                    <mxGeometry x="2225" y="453" width="420" height="220" as="geometry"/>
                </mxCell>
                <mxCell id="276" value="" style="shape=partialRectangle;html=1;whiteSpace=wrap;collapsible=0;dropTarget=0;pointerEvents=0;fillColor=none;top=0;left=0;bottom=0;right=0;points=[[0,0.5],[1,0.5]];portConstraint=eastwest;glass=0;fontSize=10;fontColor=#000000;strokeColor=#000000;rounded=1;" parent="275" vertex="1">
                    <mxGeometry width="420" height="56" as="geometry"/>
                </mxCell>
                <mxCell id="277" value="Value 1" style="shape=partialRectangle;html=1;whiteSpace=wrap;connectable=0;fillColor=none;top=0;left=0;bottom=0;right=0;overflow=hidden;pointerEvents=1;glass=0;fontSize=10;fontColor=#000000;strokeColor=#000000;rounded=1;" parent="276" vertex="1">
                    <mxGeometry width="70" height="56" as="geometry">
                        <mxRectangle width="70" height="56" as="alternateBounds"/>
                    </mxGeometry>
                </mxCell>
                <mxCell id="278" value="Value 2" style="shape=partialRectangle;html=1;whiteSpace=wrap;connectable=0;fillColor=none;top=0;left=0;bottom=0;right=0;overflow=hidden;pointerEvents=1;glass=0;fontSize=10;fontColor=#000000;strokeColor=#000000;rounded=1;" parent="276" vertex="1">
                    <mxGeometry x="70" width="70" height="56" as="geometry">
                        <mxRectangle width="70" height="56" as="alternateBounds"/>
                    </mxGeometry>
                </mxCell>
                <mxCell id="279" value="value" style="shape=partialRectangle;html=1;whiteSpace=wrap;connectable=0;fillColor=none;top=0;left=0;bottom=0;right=0;overflow=hidden;pointerEvents=1;glass=0;fontSize=10;fontColor=#000000;strokeColor=#000000;rounded=1;" parent="276" vertex="1">
                    <mxGeometry x="140" width="70" height="56" as="geometry">
                        <mxRectangle width="70" height="56" as="alternateBounds"/>
                    </mxGeometry>
                </mxCell>
                <mxCell id="288" value="&lt;span&gt;value&lt;/span&gt;" style="shape=partialRectangle;html=1;whiteSpace=wrap;connectable=0;fillColor=none;top=0;left=0;bottom=0;right=0;overflow=hidden;pointerEvents=1;glass=0;fontSize=10;fontColor=#000000;strokeColor=#000000;rounded=1;" parent="276" vertex="1">
                    <mxGeometry x="210" width="70" height="56" as="geometry">
                        <mxRectangle width="70" height="56" as="alternateBounds"/>
                    </mxGeometry>
                </mxCell>
                <mxCell id="291" value="&lt;span&gt;value&lt;/span&gt;" style="shape=partialRectangle;html=1;whiteSpace=wrap;connectable=0;fillColor=none;top=0;left=0;bottom=0;right=0;overflow=hidden;pointerEvents=1;glass=0;fontSize=10;fontColor=#000000;strokeColor=#000000;rounded=1;" parent="276" vertex="1">
                    <mxGeometry x="280" width="70" height="56" as="geometry">
                        <mxRectangle width="70" height="56" as="alternateBounds"/>
                    </mxGeometry>
                </mxCell>
                <mxCell id="306" value="&lt;span&gt;value&lt;/span&gt;" style="shape=partialRectangle;html=1;whiteSpace=wrap;connectable=0;fillColor=none;top=0;left=0;bottom=0;right=0;overflow=hidden;pointerEvents=1;glass=0;fontSize=10;fontColor=#000000;strokeColor=#000000;rounded=1;" parent="276" vertex="1">
                    <mxGeometry x="350" width="70" height="56" as="geometry">
                        <mxRectangle width="70" height="56" as="alternateBounds"/>
                    </mxGeometry>
                </mxCell>
                <mxCell id="280" value="" style="shape=partialRectangle;html=1;whiteSpace=wrap;collapsible=0;dropTarget=0;pointerEvents=0;fillColor=none;top=0;left=0;bottom=0;right=0;points=[[0,0.5],[1,0.5]];portConstraint=eastwest;glass=0;fontSize=10;fontColor=#000000;strokeColor=#000000;rounded=1;" parent="275" vertex="1">
                    <mxGeometry y="56" width="420" height="54" as="geometry"/>
                </mxCell>
                <mxCell id="281" value="Value 4" style="shape=partialRectangle;html=1;whiteSpace=wrap;connectable=0;fillColor=none;top=0;left=0;bottom=0;right=0;overflow=hidden;pointerEvents=1;glass=0;fontSize=10;fontColor=#000000;strokeColor=#000000;rounded=1;" parent="280" vertex="1">
                    <mxGeometry width="70" height="54" as="geometry">
                        <mxRectangle width="70" height="54" as="alternateBounds"/>
                    </mxGeometry>
                </mxCell>
                <mxCell id="282" value="Value 5" style="shape=partialRectangle;html=1;whiteSpace=wrap;connectable=0;fillColor=none;top=0;left=0;bottom=0;right=0;overflow=hidden;pointerEvents=1;glass=0;fontSize=10;fontColor=#000000;strokeColor=#000000;rounded=1;" parent="280" vertex="1">
                    <mxGeometry x="70" width="70" height="54" as="geometry">
                        <mxRectangle width="70" height="54" as="alternateBounds"/>
                    </mxGeometry>
                </mxCell>
                <mxCell id="283" value="Value 6" style="shape=partialRectangle;html=1;whiteSpace=wrap;connectable=0;fillColor=none;top=0;left=0;bottom=0;right=0;overflow=hidden;pointerEvents=1;glass=0;fontSize=10;fontColor=#000000;strokeColor=#000000;rounded=1;" parent="280" vertex="1">
                    <mxGeometry x="140" width="70" height="54" as="geometry">
                        <mxRectangle width="70" height="54" as="alternateBounds"/>
                    </mxGeometry>
                </mxCell>
                <mxCell id="289" value="&lt;span&gt;value&lt;/span&gt;" style="shape=partialRectangle;html=1;whiteSpace=wrap;connectable=0;fillColor=none;top=0;left=0;bottom=0;right=0;overflow=hidden;pointerEvents=1;glass=0;fontSize=10;fontColor=#000000;strokeColor=#000000;rounded=1;" parent="280" vertex="1">
                    <mxGeometry x="210" width="70" height="54" as="geometry">
                        <mxRectangle width="70" height="54" as="alternateBounds"/>
                    </mxGeometry>
                </mxCell>
                <mxCell id="292" value="&lt;span&gt;value&lt;/span&gt;" style="shape=partialRectangle;html=1;whiteSpace=wrap;connectable=0;fillColor=none;top=0;left=0;bottom=0;right=0;overflow=hidden;pointerEvents=1;glass=0;fontSize=10;fontColor=#000000;strokeColor=#000000;rounded=1;" parent="280" vertex="1">
                    <mxGeometry x="280" width="70" height="54" as="geometry">
                        <mxRectangle width="70" height="54" as="alternateBounds"/>
                    </mxGeometry>
                </mxCell>
                <mxCell id="307" value="&lt;span&gt;value&lt;/span&gt;" style="shape=partialRectangle;html=1;whiteSpace=wrap;connectable=0;fillColor=none;top=0;left=0;bottom=0;right=0;overflow=hidden;pointerEvents=1;glass=0;fontSize=10;fontColor=#000000;strokeColor=#000000;rounded=1;" parent="280" vertex="1">
                    <mxGeometry x="350" width="70" height="54" as="geometry">
                        <mxRectangle width="70" height="54" as="alternateBounds"/>
                    </mxGeometry>
                </mxCell>
                <mxCell id="284" value="" style="shape=partialRectangle;html=1;whiteSpace=wrap;collapsible=0;dropTarget=0;pointerEvents=0;fillColor=none;top=0;left=0;bottom=0;right=0;points=[[0,0.5],[1,0.5]];portConstraint=eastwest;glass=0;fontSize=10;fontColor=#000000;strokeColor=#000000;rounded=1;" parent="275" vertex="1">
                    <mxGeometry y="110" width="420" height="56" as="geometry"/>
                </mxCell>
                <mxCell id="285" value="Value 7" style="shape=partialRectangle;html=1;whiteSpace=wrap;connectable=0;fillColor=none;top=0;left=0;bottom=0;right=0;overflow=hidden;pointerEvents=1;glass=0;fontSize=10;fontColor=#000000;strokeColor=#000000;rounded=1;" parent="284" vertex="1">
                    <mxGeometry width="70" height="56" as="geometry">
                        <mxRectangle width="70" height="56" as="alternateBounds"/>
                    </mxGeometry>
                </mxCell>
                <mxCell id="286" value="Value 8" style="shape=partialRectangle;html=1;whiteSpace=wrap;connectable=0;fillColor=none;top=0;left=0;bottom=0;right=0;overflow=hidden;pointerEvents=1;glass=0;fontSize=10;fontColor=#000000;strokeColor=#000000;rounded=1;" parent="284" vertex="1">
                    <mxGeometry x="70" width="70" height="56" as="geometry">
                        <mxRectangle width="70" height="56" as="alternateBounds"/>
                    </mxGeometry>
                </mxCell>
                <mxCell id="287" value="Value 9" style="shape=partialRectangle;html=1;whiteSpace=wrap;connectable=0;fillColor=none;top=0;left=0;bottom=0;right=0;overflow=hidden;pointerEvents=1;glass=0;fontSize=10;fontColor=#000000;strokeColor=#000000;rounded=1;" parent="284" vertex="1">
                    <mxGeometry x="140" width="70" height="56" as="geometry">
                        <mxRectangle width="70" height="56" as="alternateBounds"/>
                    </mxGeometry>
                </mxCell>
                <mxCell id="290" value="&lt;span&gt;value&lt;/span&gt;" style="shape=partialRectangle;html=1;whiteSpace=wrap;connectable=0;fillColor=none;top=0;left=0;bottom=0;right=0;overflow=hidden;pointerEvents=1;glass=0;fontSize=10;fontColor=#000000;strokeColor=#000000;rounded=1;" parent="284" vertex="1">
                    <mxGeometry x="210" width="70" height="56" as="geometry">
                        <mxRectangle width="70" height="56" as="alternateBounds"/>
                    </mxGeometry>
                </mxCell>
                <mxCell id="293" value="&lt;span&gt;value&lt;/span&gt;" style="shape=partialRectangle;html=1;whiteSpace=wrap;connectable=0;fillColor=none;top=0;left=0;bottom=0;right=0;overflow=hidden;pointerEvents=1;glass=0;fontSize=10;fontColor=#000000;strokeColor=#000000;rounded=1;" parent="284" vertex="1">
                    <mxGeometry x="280" width="70" height="56" as="geometry">
                        <mxRectangle width="70" height="56" as="alternateBounds"/>
                    </mxGeometry>
                </mxCell>
                <mxCell id="308" value="&lt;span&gt;value&lt;/span&gt;" style="shape=partialRectangle;html=1;whiteSpace=wrap;connectable=0;fillColor=none;top=0;left=0;bottom=0;right=0;overflow=hidden;pointerEvents=1;glass=0;fontSize=10;fontColor=#000000;strokeColor=#000000;rounded=1;" parent="284" vertex="1">
                    <mxGeometry x="350" width="70" height="56" as="geometry">
                        <mxRectangle width="70" height="56" as="alternateBounds"/>
                    </mxGeometry>
                </mxCell>
                <mxCell id="294" style="shape=partialRectangle;html=1;whiteSpace=wrap;collapsible=0;dropTarget=0;pointerEvents=0;fillColor=none;top=0;left=0;bottom=0;right=0;points=[[0,0.5],[1,0.5]];portConstraint=eastwest;glass=0;fontSize=10;fontColor=#000000;strokeColor=#000000;rounded=1;" parent="275" vertex="1">
                    <mxGeometry y="166" width="420" height="54" as="geometry"/>
                </mxCell>
                <mxCell id="295" value="&lt;span&gt;value&lt;/span&gt;" style="shape=partialRectangle;html=1;whiteSpace=wrap;connectable=0;fillColor=none;top=0;left=0;bottom=0;right=0;overflow=hidden;pointerEvents=1;glass=0;fontSize=10;fontColor=#000000;strokeColor=#000000;rounded=1;" parent="294" vertex="1">
                    <mxGeometry width="70" height="54" as="geometry">
                        <mxRectangle width="70" height="54" as="alternateBounds"/>
                    </mxGeometry>
                </mxCell>
                <mxCell id="296" value="&lt;span&gt;value&lt;/span&gt;" style="shape=partialRectangle;html=1;whiteSpace=wrap;connectable=0;fillColor=none;top=0;left=0;bottom=0;right=0;overflow=hidden;pointerEvents=1;glass=0;fontSize=10;fontColor=#000000;strokeColor=#000000;rounded=1;" parent="294" vertex="1">
                    <mxGeometry x="70" width="70" height="54" as="geometry">
                        <mxRectangle width="70" height="54" as="alternateBounds"/>
                    </mxGeometry>
                </mxCell>
                <mxCell id="297" value="&lt;span&gt;value&lt;/span&gt;" style="shape=partialRectangle;html=1;whiteSpace=wrap;connectable=0;fillColor=none;top=0;left=0;bottom=0;right=0;overflow=hidden;pointerEvents=1;glass=0;fontSize=10;fontColor=#000000;strokeColor=#000000;rounded=1;" parent="294" vertex="1">
                    <mxGeometry x="140" width="70" height="54" as="geometry">
                        <mxRectangle width="70" height="54" as="alternateBounds"/>
                    </mxGeometry>
                </mxCell>
                <mxCell id="298" value="value" style="shape=partialRectangle;html=1;whiteSpace=wrap;connectable=0;fillColor=none;top=0;left=0;bottom=0;right=0;overflow=hidden;pointerEvents=1;glass=0;fontSize=10;fontColor=#000000;strokeColor=#000000;rounded=1;" parent="294" vertex="1">
                    <mxGeometry x="210" width="70" height="54" as="geometry">
                        <mxRectangle width="70" height="54" as="alternateBounds"/>
                    </mxGeometry>
                </mxCell>
                <mxCell id="299" value="&lt;span&gt;value&lt;/span&gt;" style="shape=partialRectangle;html=1;whiteSpace=wrap;connectable=0;fillColor=none;top=0;left=0;bottom=0;right=0;overflow=hidden;pointerEvents=1;glass=0;fontSize=10;fontColor=#000000;strokeColor=#000000;rounded=1;" parent="294" vertex="1">
                    <mxGeometry x="280" width="70" height="54" as="geometry">
                        <mxRectangle width="70" height="54" as="alternateBounds"/>
                    </mxGeometry>
                </mxCell>
                <mxCell id="309" value="&lt;span&gt;value&lt;/span&gt;" style="shape=partialRectangle;html=1;whiteSpace=wrap;connectable=0;fillColor=none;top=0;left=0;bottom=0;right=0;overflow=hidden;pointerEvents=1;glass=0;fontSize=10;fontColor=#000000;strokeColor=#000000;rounded=1;" parent="294" vertex="1">
                    <mxGeometry x="350" width="70" height="54" as="geometry">
                        <mxRectangle width="70" height="54" as="alternateBounds"/>
                    </mxGeometry>
                </mxCell>
                <mxCell id="321" style="edgeStyle=none;curved=1;rounded=1;html=1;exitX=0.031;exitY=0.025;exitDx=0;exitDy=0;entryX=1;entryY=1;entryDx=0;entryDy=0;fontSize=10;fontColor=#000000;strokeColor=#FF3333;exitPerimeter=0;" parent="1" source="312" target="259" edge="1">
                    <mxGeometry relative="1" as="geometry">
                        <Array as="points">
                            <mxPoint x="2170" y="530"/>
                        </Array>
                    </mxGeometry>
                </mxCell>
                <mxCell id="312" value="" style="rounded=1;whiteSpace=wrap;html=1;fillColor=#ffe6cc;strokeColor=#d79b00;" parent="1" vertex="1">
                    <mxGeometry x="2200" y="730" width="470" height="320" as="geometry"/>
                </mxCell>
                <mxCell id="313" value="$customerName" style="rounded=1;whiteSpace=wrap;html=1;fillColor=none;fontColor=#000000;strokeColor=#000000;" parent="1" vertex="1">
                    <mxGeometry x="2220" y="755" width="100" height="35" as="geometry"/>
                </mxCell>
                <mxCell id="314" value="&amp;nbsp;Market" style="rounded=1;whiteSpace=wrap;html=1;fillColor=none;fontColor=#000000;strokeColor=#000000;align=left;fontSize=15;" parent="1" vertex="1">
                    <mxGeometry x="2330" y="755" width="320" height="35" as="geometry"/>
                </mxCell>
                <mxCell id="315" value="market" style="rounded=1;whiteSpace=wrap;html=1;fillColor=none;fontColor=#000000;strokeColor=#000000;align=center;fontSize=10;" parent="1" vertex="1">
                    <mxGeometry x="2550" y="762.5" width="40" height="20" as="geometry"/>
                </mxCell>
                <mxCell id="316" value="orders" style="rounded=1;whiteSpace=wrap;html=1;fillColor=none;fontColor=#000000;strokeColor=#000000;align=center;fontSize=10;" parent="1" vertex="1">
                    <mxGeometry x="2600" y="762.5" width="40" height="20" as="geometry"/>
                </mxCell>
                <mxCell id="317" value="change password" style="rounded=1;whiteSpace=wrap;html=1;glass=0;fontSize=10;fontColor=#000000;strokeColor=#000000;fillColor=none;" parent="1" vertex="1">
                    <mxGeometry x="2220" y="820" width="105" height="30" as="geometry"/>
                </mxCell>
                <mxCell id="318" value="change name" style="rounded=1;whiteSpace=wrap;html=1;glass=0;fontSize=10;fontColor=#000000;strokeColor=#000000;fillColor=none;" parent="1" vertex="1">
                    <mxGeometry x="2220" y="860" width="105" height="30" as="geometry"/>
                </mxCell>
                <mxCell id="319" value="delete account" style="rounded=1;whiteSpace=wrap;html=1;glass=0;fontSize=10;fontColor=#000000;strokeColor=#000000;fillColor=none;" parent="1" vertex="1">
                    <mxGeometry x="2220" y="900" width="105" height="30" as="geometry"/>
                </mxCell>
                <mxCell id="328" style="edgeStyle=none;rounded=0;html=1;exitX=1;exitY=0.25;exitDx=0;exitDy=0;entryX=0;entryY=0.5;entryDx=0;entryDy=0;fontSize=66;fontColor=#FFFFFF;strokeColor=#FF3333;fontStyle=0;jumpSize=6;strokeWidth=10;" parent="1" source="324" target="325" edge="1">
                    <mxGeometry relative="1" as="geometry"/>
                </mxCell>
                <mxCell id="361" style="edgeStyle=none;rounded=0;jumpSize=6;html=1;exitX=0;exitY=0.5;exitDx=0;exitDy=0;entryX=1;entryY=0.5;entryDx=0;entryDy=0;fontSize=26;fontColor=#FFFFFF;endArrow=classicThin;endFill=0;strokeColor=#FF3333;strokeWidth=10;fillColor=#e51400;" parent="1" source="324" target="343" edge="1">
                    <mxGeometry relative="1" as="geometry"/>
                </mxCell>
                <mxCell id="324" value="&lt;span style=&quot;font-size: 55px ; font-weight: 700&quot;&gt;manager&lt;/span&gt;" style="rounded=0;whiteSpace=wrap;html=1;glass=0;fontSize=10;fontColor=#ffffff;strokeColor=#3A5431;fillColor=#6d8764;" parent="1" vertex="1">
                    <mxGeometry x="-1380" y="1480" width="370" height="630" as="geometry"/>
                </mxCell>
                <mxCell id="329" style="edgeStyle=none;rounded=0;jumpSize=6;html=1;exitX=1;exitY=0.5;exitDx=0;exitDy=0;fontSize=66;fontColor=#FFFFFF;strokeColor=#FFD800;strokeWidth=10;entryX=0;entryY=0.25;entryDx=0;entryDy=0;endArrow=classicThin;endFill=0;fillColor=#e3c800;" parent="1" source="325" target="326" edge="1">
                    <mxGeometry relative="1" as="geometry">
                        <mxPoint x="10" y="1790" as="targetPoint"/>
                    </mxGeometry>
                </mxCell>
                <mxCell id="325" value="products&lt;br&gt;for sale" style="rounded=0;whiteSpace=wrap;html=1;glass=0;fontSize=55;fontColor=#FFFFFF;strokeColor=#314354;fillColor=#647687;fontStyle=1;verticalAlign=middle;align=center;rotation=0;" parent="1" vertex="1">
                    <mxGeometry x="-700" y="1480" width="400" height="270" as="geometry"/>
                </mxCell>
                <mxCell id="330" style="edgeStyle=none;rounded=0;jumpSize=6;html=1;exitX=0;exitY=0.75;exitDx=0;exitDy=0;entryX=1;entryY=0.5;entryDx=0;entryDy=0;fontSize=66;fontColor=#FFFFFF;strokeColor=#FF3333;strokeWidth=10;" parent="1" source="326" target="327" edge="1">
                    <mxGeometry relative="1" as="geometry"/>
                </mxCell>
                <mxCell id="333" style="edgeStyle=none;rounded=0;jumpSize=6;html=1;exitX=0;exitY=0.75;exitDx=0;exitDy=0;entryX=1;entryY=0.5;entryDx=0;entryDy=0;fontSize=66;fontColor=#FFFFFF;endArrow=classicThin;endFill=0;strokeColor=#FF3333;strokeWidth=10;" parent="1" source="326" target="332" edge="1">
                    <mxGeometry relative="1" as="geometry"/>
                </mxCell>
                <mxCell id="345" style="edgeStyle=none;rounded=0;jumpSize=6;html=1;exitX=0;exitY=0.75;exitDx=0;exitDy=0;entryX=1;entryY=0.5;entryDx=0;entryDy=0;fontSize=66;fontColor=#FFFFFF;endArrow=classicThin;endFill=0;strokeColor=#FF3333;strokeWidth=10;" parent="1" source="326" target="325" edge="1">
                    <mxGeometry relative="1" as="geometry"/>
                </mxCell>
                <mxCell id="326" value="&lt;span style=&quot;font-size: 55px; font-weight: 700;&quot;&gt;customer&lt;br&gt;side&lt;br&gt;&lt;/span&gt;" style="rounded=0;whiteSpace=wrap;html=1;glass=0;fontSize=10;strokeColor=#56517e;fillColor=#d0cee2;fontColor=#4A4A4A;" parent="1" vertex="1">
                    <mxGeometry x="10" y="1480" width="450" height="620" as="geometry"/>
                </mxCell>
                <mxCell id="349" style="edgeStyle=none;rounded=0;jumpSize=6;html=1;exitX=1;exitY=0.5;exitDx=0;exitDy=0;fontSize=36;fontColor=#000000;endArrow=classicThin;endFill=0;strokeColor=#FFD800;strokeWidth=10;" parent="1" source="327" edge="1">
                    <mxGeometry relative="1" as="geometry">
                        <mxPoint x="10" y="1630" as="targetPoint"/>
                    </mxGeometry>
                </mxCell>
                <mxCell id="352" style="edgeStyle=none;rounded=0;jumpSize=6;html=1;exitX=0;exitY=0.5;exitDx=0;exitDy=0;fontSize=36;fontColor=#000000;endArrow=classicThin;endFill=0;strokeColor=#FFD800;strokeWidth=10;" parent="1" source="327" edge="1">
                    <mxGeometry relative="1" as="geometry">
                        <mxPoint x="-1010" y="1950" as="targetPoint"/>
                    </mxGeometry>
                </mxCell>
                <mxCell id="327" value="customer&lt;br&gt;infos" style="rounded=0;whiteSpace=wrap;html=1;glass=0;fontSize=55;fontColor=#FFFFFF;strokeColor=#314354;fillColor=#647687;fontStyle=1;verticalAlign=middle;align=center;" parent="1" vertex="1">
                    <mxGeometry x="-700" y="1940" width="400" height="120" as="geometry"/>
                </mxCell>
                <mxCell id="348" style="edgeStyle=none;rounded=0;jumpSize=6;html=1;exitX=1;exitY=0.5;exitDx=0;exitDy=0;entryX=0;entryY=0.25;entryDx=0;entryDy=0;fontSize=36;fontColor=#000000;endArrow=classicThin;endFill=0;strokeColor=#FFD800;strokeWidth=10;" parent="1" source="332" target="326" edge="1">
                    <mxGeometry relative="1" as="geometry"/>
                </mxCell>
                <mxCell id="351" style="edgeStyle=none;rounded=0;jumpSize=6;html=1;exitX=0;exitY=0.5;exitDx=0;exitDy=0;entryX=1;entryY=0.75;entryDx=0;entryDy=0;fontSize=36;fontColor=#000000;endArrow=classicThin;endFill=0;strokeColor=#FFD800;strokeWidth=10;" parent="1" source="332" target="324" edge="1">
                    <mxGeometry relative="1" as="geometry"/>
                </mxCell>
                <mxCell id="332" value="orders" style="rounded=0;whiteSpace=wrap;html=1;glass=0;fontSize=55;fontColor=#FFFFFF;strokeColor=#314354;fillColor=#647687;fontStyle=1;verticalAlign=middle;align=center;" parent="1" vertex="1">
                    <mxGeometry x="-700" y="1790" width="400" height="120" as="geometry"/>
                </mxCell>
                <mxCell id="335" value="stock" style="rounded=0;whiteSpace=wrap;html=1;glass=0;fontSize=55;fontColor=#ffffff;strokeColor=#6D1F00;fillColor=#a0522d;fontStyle=1;verticalAlign=middle;align=center;" parent="1" vertex="1">
                    <mxGeometry x="-1310" y="1510" width="250" height="210" as="geometry"/>
                </mxCell>
                <mxCell id="336" value="market" style="rounded=0;whiteSpace=wrap;html=1;glass=0;fontSize=55;fontColor=#ffffff;strokeColor=#6D1F00;fillColor=#a0522d;fontStyle=1;verticalAlign=middle;align=center;" parent="1" vertex="1">
                    <mxGeometry x="108" y="1500" width="250" height="110" as="geometry"/>
                </mxCell>
                <mxCell id="337" value="order" style="rounded=0;whiteSpace=wrap;html=1;glass=0;fontSize=55;fontColor=#ffffff;strokeColor=#6D1F00;fillColor=#a0522d;fontStyle=1;verticalAlign=middle;align=center;" parent="1" vertex="1">
                    <mxGeometry x="120" y="1880" width="250" height="70" as="geometry"/>
                </mxCell>
                <mxCell id="340" value="folders" style="text;html=1;strokeColor=none;fillColor=none;align=center;verticalAlign=middle;whiteSpace=wrap;rounded=0;glass=0;fontSize=66;fontColor=#FFFFFF;" parent="1" vertex="1">
                    <mxGeometry x="-560" y="1410" width="140" height="30" as="geometry"/>
                </mxCell>
                <mxCell id="347" value="&lt;font style=&quot;font-size: 36px&quot;&gt;minusing product number&lt;/font&gt;" style="text;html=1;strokeColor=none;fillColor=none;align=center;verticalAlign=middle;whiteSpace=wrap;rounded=0;glass=0;fontSize=15;fontColor=#000000;fontStyle=1" parent="1" vertex="1">
                    <mxGeometry x="50" y="1960" width="380" height="140" as="geometry"/>
                </mxCell>
                <mxCell id="360" style="edgeStyle=none;rounded=0;jumpSize=6;html=1;exitX=1;exitY=0.5;exitDx=0;exitDy=0;entryX=0;entryY=0.5;entryDx=0;entryDy=0;fontSize=26;fontColor=#FFFFFF;endArrow=classicThin;endFill=0;strokeColor=#FFD800;strokeWidth=10;" parent="1" source="353" target="324" edge="1">
                    <mxGeometry relative="1" as="geometry"/>
                </mxCell>
                <mxCell id="353" value="supplier" style="rounded=0;whiteSpace=wrap;html=1;glass=0;fontSize=55;fontColor=#FFFFFF;strokeColor=#314354;fillColor=#647687;fontStyle=1;verticalAlign=middle;align=center;rotation=0;" parent="1" vertex="1">
                    <mxGeometry x="-2135" y="1514" width="400" height="96" as="geometry"/>
                </mxCell>
                <mxCell id="356" value="&lt;div style=&quot;text-align: left; font-size: 26px;&quot;&gt;&lt;i style=&quot;font-size: 26px;&quot;&gt;&lt;font style=&quot;font-size: 26px;&quot;&gt;LCW&lt;/font&gt;&lt;/i&gt;&lt;/div&gt;&lt;div style=&quot;text-align: left; font-size: 26px;&quot;&gt;&lt;i style=&quot;font-size: 26px;&quot;&gt;&lt;font style=&quot;font-size: 26px;&quot;&gt;&lt;br style=&quot;font-size: 26px;&quot;&gt;&lt;/font&gt;&lt;/i&gt;&lt;/div&gt;&lt;i style=&quot;font-size: 26px;&quot;&gt;&lt;font style=&quot;font-size: 26px;&quot;&gt;&lt;div style=&quot;text-align: left; font-size: 26px;&quot;&gt;&lt;i style=&quot;font-size: 26px;&quot;&gt;HOOMAN&lt;/i&gt;&lt;/div&gt;&lt;div style=&quot;text-align: left; font-size: 26px;&quot;&gt;&lt;i style=&quot;font-size: 26px;&quot;&gt;&lt;br style=&quot;font-size: 26px;&quot;&gt;&lt;/i&gt;&lt;/div&gt;&lt;div style=&quot;text-align: left; font-size: 26px;&quot;&gt;&lt;i style=&quot;font-size: 26px;&quot;&gt;ERTAN&lt;/i&gt;&lt;/div&gt;&lt;/font&gt;&lt;/i&gt;" style="text;html=1;strokeColor=none;fillColor=none;align=center;verticalAlign=middle;whiteSpace=wrap;rounded=0;glass=0;fontSize=26;fontColor=#FFFFFF;" parent="1" vertex="1">
                    <mxGeometry x="-2135" y="1630" width="190" height="180" as="geometry"/>
                </mxCell>
                <mxCell id="357" value="&lt;div style=&quot;text-align: left&quot;&gt;&lt;span style=&quot;font-size: 22px&quot;&gt;&lt;i&gt;there are stock files for every supplier.&lt;/i&gt;&lt;/span&gt;&lt;/div&gt;" style="text;html=1;strokeColor=none;fillColor=none;align=center;verticalAlign=middle;whiteSpace=wrap;rounded=0;glass=0;fontSize=36;fontColor=#FFFFFF;" parent="1" vertex="1">
                    <mxGeometry x="-1910" y="1600" width="191" height="170" as="geometry"/>
                </mxCell>
                <mxCell id="359" style="edgeStyle=none;rounded=0;jumpSize=6;html=1;exitX=1;exitY=0.5;exitDx=0;exitDy=0;entryX=0;entryY=0.5;entryDx=0;entryDy=0;fontSize=26;fontColor=#FFFFFF;endArrow=classicThin;endFill=0;strokeColor=#FFD800;strokeWidth=10;" parent="1" source="358" target="324" edge="1">
                    <mxGeometry relative="1" as="geometry"/>
                </mxCell>
                <mxCell id="358" value="all stock" style="rounded=0;whiteSpace=wrap;html=1;glass=0;fontSize=55;fontColor=#FFFFFF;strokeColor=#314354;fillColor=#647687;fontStyle=1;verticalAlign=middle;align=center;rotation=0;" parent="1" vertex="1">
                    <mxGeometry x="-2135" y="1940" width="400" height="96" as="geometry"/>
                </mxCell>
                <mxCell id="364" value="&lt;span style=&quot;font-size: 11px&quot;&gt;wooman&lt;/span&gt;" style="rounded=1;whiteSpace=wrap;html=1;fontSize=22;strokeColor=#FFFFFF;fillColor=none;verticalAlign=top;fontColor=#FFFFFF;" parent="1" vertex="1">
                    <mxGeometry x="-1310" y="608" width="70" height="40" as="geometry"/>
                </mxCell>
                <mxCell id="365" value="&lt;span style=&quot;font-size: 11px&quot;&gt;child&lt;/span&gt;" style="rounded=1;whiteSpace=wrap;html=1;fontSize=22;strokeColor=#FFFFFF;fillColor=none;verticalAlign=top;fontColor=#FFFFFF;" parent="1" vertex="1">
                    <mxGeometry x="-1310" y="705" width="70" height="40" as="geometry"/>
                </mxCell>
                <mxCell id="78" value="&lt;div&gt;&lt;span style=&quot;font-size: x-small&quot;&gt;order&lt;/span&gt;&lt;/div&gt;" style="rounded=1;whiteSpace=wrap;html=1;fontSize=22;strokeColor=#FFFFFF;fillColor=none;verticalAlign=bottom;align=center;glass=0;horizontal=1;labelPosition=center;verticalLabelPosition=middle;fontColor=#FFFFFF;" parent="1" vertex="1">
                    <mxGeometry x="-1050" y="720" width="60" height="30" as="geometry"/>
                </mxCell>
                <mxCell id="366" value="&lt;font style=&quot;font-size: 11px&quot;&gt;pantsFoto&lt;/font&gt;" style="rounded=1;whiteSpace=wrap;html=1;fontSize=22;strokeColor=#FFFFFF;fillColor=none;verticalAlign=top;fontColor=#FFFFFF;" parent="1" vertex="1">
                    <mxGeometry x="-1180" y="608" width="70" height="40" as="geometry"/>
                </mxCell>
                <mxCell id="367" value="&lt;span style=&quot;font-size: 11px&quot;&gt;sweaterFoto&lt;/span&gt;" style="rounded=1;whiteSpace=wrap;html=1;fontSize=22;strokeColor=#FFFFFF;fillColor=none;verticalAlign=top;fontColor=#FFFFFF;" parent="1" vertex="1">
                    <mxGeometry x="-1100" y="608" width="70" height="40" as="geometry"/>
                </mxCell>
                <mxCell id="368" value="&lt;font style=&quot;font-size: 12px&quot;&gt;t-shirtFoto&lt;/font&gt;" style="rounded=1;whiteSpace=wrap;html=1;fontSize=22;strokeColor=#FFFFFF;fillColor=none;verticalAlign=top;fontColor=#FFFFFF;" parent="1" vertex="1">
                    <mxGeometry x="-1020" y="608" width="70" height="40" as="geometry"/>
                </mxCell>
                <mxCell id="370" value="value" style="rounded=1;whiteSpace=wrap;html=1;fontSize=12;strokeColor=#FFFFFF;fillColor=none;fontColor=#FFFFFF;" parent="1" vertex="1">
                    <mxGeometry x="-1100" y="693" width="70" height="12" as="geometry"/>
                </mxCell>
                <mxCell id="372" style="edgeStyle=none;html=1;exitX=1;exitY=0.75;exitDx=0;exitDy=0;entryX=0;entryY=0.5;entryDx=0;entryDy=0;" parent="1" source="371" target="80" edge="1">
                    <mxGeometry relative="1" as="geometry">
                        <Array as="points">
                            <mxPoint x="-930" y="800"/>
                        </Array>
                    </mxGeometry>
                </mxCell>
                <mxCell id="371" value="value" style="rounded=1;whiteSpace=wrap;html=1;fontSize=12;strokeColor=#FFFFFF;fillColor=none;fontColor=#FFFFFF;" parent="1" vertex="1">
                    <mxGeometry x="-1020" y="693" width="70" height="12" as="geometry"/>
                </mxCell>
                <mxCell id="373" value="&lt;pre&gt;&lt;span style=&quot;font-size: 6px&quot;&gt;*material informations&amp;nbsp;&lt;/span&gt;&lt;/pre&gt;" style="text;html=1;strokeColor=none;fillColor=none;spacing=5;spacingTop=-20;whiteSpace=wrap;overflow=hidden;rounded=1;fontSize=21;fontColor=#FFFFFF;" parent="1" vertex="1">
                    <mxGeometry x="-1195" y="648" width="90" height="45" as="geometry"/>
                </mxCell>
                <mxCell id="374" value="&lt;pre&gt;&lt;span style=&quot;font-size: 6px&quot;&gt;*material informations&amp;nbsp;&lt;/span&gt;&lt;/pre&gt;" style="text;html=1;strokeColor=none;fillColor=none;spacing=5;spacingTop=-20;whiteSpace=wrap;overflow=hidden;rounded=1;fontSize=21;fontColor=#FFFFFF;" parent="1" vertex="1">
                    <mxGeometry x="-1110" y="648" width="90" height="45" as="geometry"/>
                </mxCell>
                <mxCell id="375" value="&lt;pre&gt;&lt;span style=&quot;font-size: 6px&quot;&gt;*material informations&amp;nbsp;&lt;/span&gt;&lt;/pre&gt;" style="text;html=1;strokeColor=none;fillColor=none;spacing=5;spacingTop=-20;whiteSpace=wrap;overflow=hidden;rounded=1;fontSize=21;fontColor=#FFFFFF;" parent="1" vertex="1">
                    <mxGeometry x="-1025" y="648" width="90" height="45" as="geometry"/>
                </mxCell>
                <mxCell id="376" value="&lt;div&gt;&lt;span style=&quot;font-size: x-small&quot;&gt;chart&lt;/span&gt;&lt;/div&gt;" style="rounded=1;whiteSpace=wrap;html=1;fontSize=22;strokeColor=#FFFFFF;fillColor=none;verticalAlign=bottom;align=center;glass=0;horizontal=1;labelPosition=center;verticalLabelPosition=middle;fontColor=#FFFFFF;" vertex="1" parent="1">
                    <mxGeometry x="-980" y="557.5" width="60" height="25" as="geometry"/>
                </mxCell>
                <mxCell id="377" value="&lt;div&gt;&lt;span style=&quot;font-size: x-small&quot;&gt;add to chart&lt;/span&gt;&lt;/div&gt;" style="rounded=1;whiteSpace=wrap;html=1;fontSize=22;strokeColor=#FFFFFF;fillColor=none;verticalAlign=bottom;align=center;glass=0;horizontal=1;labelPosition=center;verticalLabelPosition=middle;fontColor=#FFFFFF;" vertex="1" parent="1">
                    <mxGeometry x="-1130" y="720" width="60" height="30" as="geometry"/>
                </mxCell>
            </root>
        </mxGraphModel>
    </diagram>
</mxfile>